<svg width="78" height="49" viewBox="0 0 78 49" fill="none" xmlns="http://www.w3.org/2000/svg">
<path d="M0.184895 48L7.91217 1.45454H27.1394C30.6243 1.45454 33.5258 2.12879 35.844 3.47727C38.1622 4.82576 39.8061 6.71212 40.7758 9.13636C41.7455 11.5606 41.9652 14.3712 41.4349 17.5682C40.9197 20.7955 39.7607 23.6061 37.9576 26C36.1697 28.3939 33.8667 30.25 31.0485 31.5682C28.2303 32.8864 25.0258 33.5455 21.4349 33.5455H9.59399L11.0713 24.6818H20.844C22.5561 24.6818 24.0334 24.3864 25.2758 23.7955C26.5334 23.2045 27.541 22.3788 28.2985 21.3182C29.0561 20.2576 29.5561 19.0076 29.7985 17.5682C30.0258 16.1288 29.9349 14.8864 29.5258 13.8409C29.1167 12.7803 28.3819 11.9621 27.3213 11.3864C26.2758 10.8106 24.9122 10.5227 23.2304 10.5227H17.6849L11.4349 48H0.184895ZM66.3151 15.5C66.4363 13.7879 65.9818 12.4621 64.9515 11.5227C63.9363 10.5833 62.3303 10.1136 60.1333 10.1136C58.6788 10.1136 57.4363 10.303 56.406 10.6818C55.3757 11.0455 54.5651 11.5606 53.9742 12.2273C53.3833 12.8788 53.0121 13.6364 52.8606 14.5C52.7242 15.1818 52.7621 15.7879 52.9742 16.3182C53.1863 16.8485 53.5576 17.3182 54.0879 17.7273C54.6333 18.1364 55.3076 18.4924 56.1106 18.7955C56.9288 19.0985 57.8454 19.3636 58.8606 19.5909L62.6788 20.5C64.8909 21 66.8076 21.6667 68.4288 22.5C70.0651 23.3182 71.3909 24.3106 72.406 25.4773C73.4212 26.6288 74.1182 27.9545 74.497 29.4545C74.8757 30.9545 74.906 32.6364 74.5879 34.5C74.103 37.4394 72.9439 39.9621 71.1106 42.0682C69.2924 44.1742 66.9136 45.7879 63.9742 46.9091C61.05 48.0303 57.6485 48.5909 53.7697 48.5909C49.8909 48.5909 46.5954 48.0076 43.8833 46.8409C41.1863 45.6591 39.2318 43.8788 38.0197 41.5C36.8076 39.1212 36.4818 36.1212 37.0424 32.5H47.7924C47.6257 34 47.8151 35.25 48.3606 36.25C48.9212 37.25 49.7848 38.0076 50.9515 38.5227C52.1182 39.0379 53.5273 39.2955 55.1788 39.2955C56.6939 39.2955 58.0197 39.0909 59.156 38.6818C60.3076 38.2727 61.2242 37.7045 61.906 36.9773C62.603 36.25 63.0273 35.4167 63.1788 34.4773C63.3303 33.6136 63.1863 32.8636 62.747 32.2273C62.3227 31.5909 61.5954 31.0379 60.5651 30.5682C59.55 30.0985 58.2167 29.6742 56.5651 29.2955L51.906 28.1591C48.0576 27.2197 45.1409 25.7197 43.156 23.6591C41.1863 21.5985 40.4894 18.803 41.0651 15.2727C41.55 12.3788 42.747 9.84848 44.656 7.68182C46.5803 5.51515 49.0121 3.83333 51.9515 2.63636C54.906 1.42424 58.156 0.81818 61.7015 0.81818C65.3076 0.81818 68.3379 1.43182 70.7924 2.65909C73.2621 3.87121 75.0424 5.58333 76.1333 7.79545C77.2394 9.99242 77.5576 12.5606 77.0879 15.5H66.3151Z" fill="black"/>
</svg>
